<svg width="278" height="278" viewBox="0 0 278 278" fill="none" xmlns="http://www.w3.org/2000/svg">
    <g clip-path="url(#clip0_208_2523)">
    <path d="M276.5 138.555L151.857 263.659L151.73 263.786L138.937 276.5L1.5 138.555L18.9804 121.01L127.156 229.586V1.5H151.857V228.569L259.02 121.01L276.5 138.555Z" stroke="black" stroke-width="2" stroke-miterlimit="10"/>
    <path fill-rule="evenodd" clip-rule="evenodd" d="M248.596 75.3438H210.9V73.3438C210.9 63.1245 217.268 55.737 226.603 50.5072C227.346 50.0829 228.052 49.6833 228.723 49.3036C232.278 47.2917 234.85 45.8361 236.674 44.1985C237.705 43.273 238.418 42.3491 238.887 41.3105C239.356 40.271 239.628 39.0089 239.628 37.3438C239.628 35.179 239.098 33.1636 237.933 31.7278C236.828 30.3655 234.941 29.2638 231.62 29.2638C227.815 29.2638 225.464 30.567 224.01 32.409C222.494 34.329 221.74 37.1061 221.74 40.3678V42.3678H212.34V40.3678C212.34 35.1725 213.853 30.2319 217.122 26.5632C220.423 22.8586 225.334 20.6558 231.692 20.6558C236.348 20.6558 240.7 22.1173 243.915 24.9894C247.156 27.8861 249.1 32.0958 249.1 37.2718C249.1 48.0065 240.511 52.8538 233.449 56.8392L233.404 56.8643C233.403 56.8651 233.401 56.8659 233.4 56.8667C233.237 56.96 233.074 57.0528 232.912 57.1453C230.013 58.8001 227.317 60.3387 225.178 62.1855C223.592 63.5555 222.399 65.0239 221.712 66.7358H248.596V75.3438ZM219.164 68.7358V68.5918C219.256 67.9431 219.398 67.3254 219.587 66.7358C221.267 61.4858 226.584 58.4524 231.865 55.4403C232.047 55.3361 232.23 55.232 232.412 55.1278C239.684 51.0238 247.1 46.7038 247.1 37.2718C247.1 27.9838 240.188 22.6558 231.692 22.6558C220.777 22.6558 215.156 29.6306 214.423 38.3678C214.368 39.0252 214.34 39.6926 214.34 40.3678H219.74C219.74 33.3118 222.98 27.2638 231.62 27.2638C239.252 27.2638 241.628 32.4478 241.628 37.3438C241.628 44.3066 237.414 46.6888 229.661 51.0717C228.996 51.4476 228.305 51.8383 227.588 52.2478C219.252 56.9162 213.757 63.1289 212.992 71.3438C212.931 71.9977 212.9 72.6643 212.9 73.3438H246.596V68.7358H219.164Z" fill="black"/>
    <rect x="183" y="1" width="94" height="94" rx="47" stroke="black" stroke-width="2"/>
    </g>
    <defs>
    <clipPath id="clip0_208_2523">
    <rect width="278" height="278" fill="white"/>
    </clipPath>
    </defs>
</svg>