<svg width="278" height="278" viewBox="0 0 278 278" fill="none" xmlns="http://www.w3.org/2000/svg">
    <g clip-path="url(#clip0_208_2525)">
    <path d="M1.5 139.445L126.143 14.341L126.27 14.2138L138.937 1.5L276.5 139.445L259.02 156.99L150.844 48.5411V276.5H126.143V49.4311L18.9804 156.99L1.5 139.445Z" stroke="black" stroke-width="2" stroke-miterlimit="10"/>
    <path fill-rule="evenodd" clip-rule="evenodd" d="M225.368 255.752V218.231C222.845 219.264 219.922 219.392 217 219.392H215V211.049L216.95 211.001C221.2 210.895 223.292 210.167 224.425 209.179C225.504 208.239 226.109 206.712 226.385 203.81L226.557 202H234.552V255.752H225.368ZM225.368 216.028C226.105 215.639 226.773 215.144 227.368 214.512V253.752H232.552V204H228.376C227.8 210.048 225.712 212.784 217 213V217.392C217.689 217.392 218.356 217.383 219 217.36C221.481 217.268 223.619 216.95 225.368 216.028Z" fill="black"/>
    <rect x="182" y="182" width="94" height="94" rx="47" stroke="black" stroke-width="2"/>
    </g>
    <defs>
    <clipPath id="clip0_208_2525">
    <rect width="278" height="278" fill="white"/>
    </clipPath>
    </defs>
</svg>