<svg width="278" height="278" viewBox="0 0 278 278" fill="none" xmlns="http://www.w3.org/2000/svg">
    <g clip-path="url(#clip0_209_1330)">
    <path d="M139.955 1.5V276.5H101.331L16.5 191.899L35.882 172.537L112.567 249.141V1.5H139.955Z" stroke="black" stroke-width="2" stroke-miterlimit="10"/>
    <path d="M276.5 1.5V276.5H237.876L153.045 191.899L172.427 172.537L249.112 249.141V1.5H276.5Z" stroke="black" stroke-width="2" stroke-miterlimit="10"/>
    <path fill-rule="evenodd" clip-rule="evenodd" d="M27.8199 54.244H37.2919V56.244C37.2919 59.7625 38.1559 62.4346 39.8232 64.2216C41.4664 65.9826 44.1904 67.204 48.6119 67.204C52.6725 67.204 55.1297 66.2858 56.5635 64.998C57.9567 63.7467 58.7079 61.8516 58.7079 59.124C58.7079 55.9245 57.527 54.0596 55.999 52.9285C54.3765 51.7274 52.1281 51.188 49.8359 51.188H42.5079V42.58H49.5479C51.9012 42.58 53.6949 41.9381 54.8777 40.8716C56.0283 39.8342 56.8359 38.1844 56.8359 35.652C56.8359 33.8254 56.2636 32.1466 55.0996 30.9365C53.9581 29.7499 52.0378 28.796 48.8999 28.796C44.2751 28.796 41.8533 30.0981 40.5385 31.6156C39.1764 33.1878 38.6599 35.3798 38.6599 37.812V39.812H29.1879V37.812C29.1879 32.9052 30.8006 28.4355 34.213 25.2006C37.6182 21.9723 42.5884 20.188 48.8999 20.188C53.3489 20.188 57.6666 21.5242 60.9133 24.1525C64.2004 26.8134 66.3079 30.7429 66.3079 35.652C66.3079 38.7695 65.5316 41.4229 63.9168 43.6018C63.111 44.6891 62.1286 45.6148 61.0009 46.4063C62.826 47.4367 64.3216 48.7269 65.471 50.2705C67.3523 52.7968 68.1799 55.832 68.1799 59.124C68.1799 64.3389 66.2313 68.5983 62.7141 71.5171C59.2435 74.3972 54.443 75.812 48.9719 75.812C42.5765 75.812 37.2505 74.0771 33.5056 70.6306C29.7385 67.1637 27.8199 62.1931 27.8199 56.244V54.244ZM58.9798 47.6122C58.2461 47.2667 57.4527 46.9582 56.5978 46.6886C56.5759 46.6817 56.5539 46.6749 56.5319 46.668V46.524C56.5491 46.5171 56.5662 46.5103 56.5833 46.5034C57.4143 46.1685 58.1823 45.798 58.8852 45.3878C62.4177 43.3262 64.3079 40.2602 64.3079 35.652C64.3079 27.084 57.0359 22.188 48.8999 22.188C37.9252 22.188 32.1118 27.9024 31.2896 35.812C31.2218 36.4644 31.1879 37.1317 31.1879 37.812H36.6599C36.6599 32.484 38.8919 26.796 48.8999 26.796C56.0279 26.796 58.8359 31.188 58.8359 35.652C58.8359 41.628 54.9479 44.58 49.5479 44.58H44.5079V49.188H49.8359C54.9479 49.188 60.708 51.564 60.708 59.124C60.708 65.316 57.2519 69.204 48.6119 69.204C39.0359 69.204 35.2919 63.876 35.2919 56.244H29.8199C29.8199 56.928 29.8472 57.5949 29.9011 58.244C30.7157 68.0484 37.6271 73.812 48.9719 73.812C59.2679 73.812 66.1799 68.484 66.1799 59.124C66.1799 53.9959 63.9529 49.9542 58.9798 47.6122Z" fill="black"/>
    <rect x="1" y="1" width="94" height="94" rx="47" stroke="black" stroke-width="2"/>
    </g>
    <defs>
    <clipPath id="clip0_209_1330">
    <rect width="278" height="278" fill="white"/>
    </clipPath>
    </defs>
</svg>