<svg width="354" height="310" viewBox="0 0 354 310" fill="none" xmlns="http://www.w3.org/2000/svg">
    <path d="M200.7 202.45V226.25H313.2L351.7 202.45V107.55L313.2 83.75H224.8V107.55H304.7" stroke="black" stroke-width="3" stroke-miterlimit="10"/>
    <path d="M245.2 202.45H188.9V178.75H245.2" stroke="black" stroke-width="3" stroke-miterlimit="10"/>
    <path d="M245.2 178.75H188.9V155.05H245.2" stroke="black" stroke-width="3" stroke-miterlimit="10"/>
    <path d="M245.2 155.05H188.9V131.25H245.2" stroke="black" stroke-width="3" stroke-miterlimit="10"/>
    <path d="M245.2 131.25H200.7V107.55H233" stroke="black" stroke-width="3" stroke-miterlimit="10"/>
    <path d="M153.2 202.45V226.25H40.6999L2.29993 202.45V107.55L40.6999 83.75H129.2V107.55H49.2999" stroke="black" stroke-width="3" stroke-miterlimit="10"/>
    <path d="M108.8 202.45H165.1V178.75H108.8" stroke="black" stroke-width="3" stroke-miterlimit="10"/>
    <path d="M108.8 178.75H165.1V155.05H108.8" stroke="black" stroke-width="3" stroke-miterlimit="10"/>
    <path d="M108.8 155.05H165.1V131.25H108.8" stroke="black" stroke-width="3" stroke-miterlimit="10"/>
    <path d="M108.8 131.25H153.3V107.55H121" stroke="black" stroke-width="3" stroke-miterlimit="10"/>
    <path d="M188.9 71.6498L235.5 25.0498" stroke="black" stroke-width="3" stroke-miterlimit="10"/>
    <path d="M113.7 25.0498L160.3 71.6498" stroke="black" stroke-width="3" stroke-miterlimit="10"/>
    <path d="M174.6 47.2499V0.649902" stroke="black" stroke-width="3" stroke-miterlimit="10"/>
    <path d="M160.3 238.35L113.7 284.95" stroke="black" stroke-width="3" stroke-miterlimit="10"/>
    <path d="M235.5 284.95L188.9 238.35" stroke="black" stroke-width="3" stroke-miterlimit="10"/>
    <path d="M174.6 262.75V309.35" stroke="black" stroke-width="3" stroke-miterlimit="10"/>
</svg>