<svg width="25" height="24" viewBox="0 0 25 24" xmlns="http://www.w3.org/2000/svg">
    <mask id="mask0_33_45" style="mask-type:alpha" maskUnits="userSpaceOnUse" x="0" y="0" width="25" height="24">
    <rect x="0.5" width="24" height="24"/>
    </mask>
    <g mask="url(#mask0_33_45)">
    <path d="M6.5 14C6.5 14.8667 6.675 15.6875 7.025 16.4625C7.375 17.2375 7.875 17.9167 8.525 18.5C8.50833 18.4167 8.5 18.3417 8.5 18.275V18.05C8.5 17.5167 8.6 17.0167 8.8 16.55C9 16.0833 9.29167 15.6583 9.675 15.275L12.5 12.5L15.325 15.275C15.7083 15.6583 16 16.0833 16.2 16.55C16.4 17.0167 16.5 17.5167 16.5 18.05V18.275C16.5 18.3417 16.4917 18.4167 16.475 18.5C17.125 17.9167 17.625 17.2375 17.975 16.4625C18.325 15.6875 18.5 14.8667 18.5 14C18.5 13.1667 18.3458 12.3792 18.0375 11.6375C17.7292 10.8958 17.2833 10.2333 16.7 9.65C16.3667 9.86667 16.0167 10.0292 15.65 10.1375C15.2833 10.2458 14.9083 10.3 14.525 10.3C13.4917 10.3 12.5958 9.95833 11.8375 9.275C11.0792 8.59167 10.6417 7.75 10.525 6.75C9.875 7.3 9.3 7.87083 8.8 8.4625C8.3 9.05417 7.87917 9.65417 7.5375 10.2625C7.19583 10.8708 6.9375 11.4917 6.7625 12.125C6.5875 12.7583 6.5 13.3833 6.5 14ZM12.5 15.3L11.075 16.7C10.8917 16.8833 10.75 17.0917 10.65 17.325C10.55 17.5583 10.5 17.8 10.5 18.05C10.5 18.5833 10.6958 19.0417 11.0875 19.425C11.4792 19.8083 11.95 20 12.5 20C13.05 20 13.5208 19.8083 13.9125 19.425C14.3042 19.0417 14.5 18.5833 14.5 18.05C14.5 17.7833 14.45 17.5375 14.35 17.3125C14.25 17.0875 14.1083 16.8833 13.925 16.7L12.5 15.3ZM12.5 3V6.3C12.5 6.86667 12.6958 7.34167 13.0875 7.725C13.4792 8.10833 13.9583 8.3 14.525 8.3C14.825 8.3 15.1042 8.2375 15.3625 8.1125C15.6208 7.9875 15.85 7.8 16.05 7.55L16.5 7C17.7333 7.7 18.7083 8.675 19.425 9.925C20.1417 11.175 20.5 12.5333 20.5 14C20.5 16.2333 19.725 18.125 18.175 19.675C16.625 21.225 14.7333 22 12.5 22C10.2667 22 8.375 21.225 6.825 19.675C5.275 18.125 4.5 16.2333 4.5 14C4.5 11.85 5.22083 9.80833 6.6625 7.875C8.10417 5.94167 10.05 4.31667 12.5 3Z" fill="white"/>
    </g>
</svg>
